ffmpeg started on 2016-11-27 at 06:11:20
Report written to "Output/NVENCh264/results/ffmpeg/crowd_run_2160p50llhq4000k.log"
Command line:
Tools/ffmpeg/ffmpeg -benchmark -y -i Input/y4m/crowd_run_2160p50.y4m -c:v h264_nvenc -preset llhq -b:v 4000k -an Output/NVENCh264/encoded/crowd_run_2160p50llhq4000k.mkv
ffmpeg version N-82227-gdb23fde Copyright (c) 2000-2016 the FFmpeg developers
  built with gcc 5.4.0 (Ubuntu 5.4.0-6ubuntu1~16.04.2) 20160609
  configuration: --prefix=/home/jaroslav/ffmpeg_build --pkg-config-flags=--static --extra-cflags=-I/home/jaroslav/ffmpeg_build/include --extra-ldflags=-L/home/jaroslav/ffmpeg_build/lib --bindir=/home/jaroslav/bin --enable-gpl --enable-libass --enable-libfdk-aac --enable-libfreetype --enable-libmp3lame --enable-libopus --enable-libtheora --enable-libvorbis --enable-libvpx --enable-libx264 --enable-libx265 --enable-nvenc --enable-libmfx --enable-libxvid --enable-libgsm --enable-libopencore-amrnb --enable-version3 --enable-nonfree
  libavutil      55. 35.100 / 55. 35.100
  libavcodec     57. 66.101 / 57. 66.101
  libavformat    57. 57.100 / 57. 57.100
  libavdevice    57.  2.100 / 57.  2.100
  libavfilter     6. 66.100 /  6. 66.100
  libswscale      4.  3.100 /  4.  3.100
  libswresample   2.  4.100 /  2.  4.100
  libpostproc    54.  2.100 / 54.  2.100
Input #0, yuv4mpegpipe, from 'Input/y4m/crowd_run_2160p50.y4m':
  Duration: 00:00:10.00, start: 0.000000, bitrate: 4976642 kb/s
    Stream #0:0: Video: rawvideo (I420 / 0x30323449), yuv420p(progressive), 3840x2160, SAR 1:1 DAR 16:9, 50 fps, 50 tbr, 50 tbn, 50 tbc
[h264_nvenc @ 0x2eef1c0] The variable bitrate rate-control requires the 'qmin' and/or 'qmax' option set.
Output #0, matroska, to 'Output/NVENCh264/encoded/crowd_run_2160p50llhq4000k.mkv':
  Metadata:
    encoder         : Lavf57.57.100
    Stream #0:0: Video: h264 (h264_nvenc) (Main) (H264 / 0x34363248), yuv420p, 3840x2160 [SAR 1:1 DAR 16:9], q=-1--1, 4000 kb/s, 50 fps, 1k tbn, 50 tbc
    Metadata:
      encoder         : Lavc57.66.101 h264_nvenc
    Side data:
      cpb: bitrate max/min/avg: 0/0/4000000 buffer size: 8000000 vbv_delay: -1
Stream mapping:
  Stream #0:0 -> #0:0 (rawvideo (native) -> h264 (h264_nvenc))
Press [q] to stop, [?] for help
frame=   11 fps=0.0 q=0.0 size=       0kB time=00:00:00.00 bitrate=N/A speed=   0x    frame=   21 fps= 20 q=0.0 size=       0kB time=00:00:00.00 bitrate=N/A speed=   0x    frame=   32 fps= 20 q=49.0 size=       1kB time=00:00:00.02 bitrate= 284.6kbits/s speed=0.0132x    frame=   49 fps= 23 q=49.0 size=       1kB time=00:00:00.36 bitrate=  16.6kbits/s speed=0.171x    frame=   67 fps= 25 q=49.0 size=       1kB time=00:00:00.72 bitrate=   8.3kbits/s speed=0.274x    frame=   85 fps= 27 q=49.0 size=       1kB time=00:00:01.08 bitrate=   5.5kbits/s speed=0.343x    frame=  103 fps= 28 q=49.0 size=       1kB time=00:00:01.44 bitrate=   4.1kbits/s speed=0.392x    frame=  116 fps= 15 q=49.0 size=       1kB time=00:00:01.70 bitrate=   3.5kbits/s speed=0.217x    frame=  117 fps= 14 q=49.0 size=       1kB time=00:00:01.72 bitrate=   3.5kbits/s speed=0.204x    frame=  135 fps= 15 q=49.0 size=       1kB time=00:00:02.08 bitrate=   2.9kbits/s speed=0.232x    frame=  152 fps= 16 q=49.0 size=       1kB time=00:00:02.42 bitrate=   2.5kbits/s speed=0.255x    frame=  169 fps= 17 q=49.0 size=       1kB time=00:00:02.76 bitrate=   2.2kbits/s speed=0.276x    frame=  186 fps= 18 q=49.0 size=       1kB time=00:00:03.10 bitrate=   1.9kbits/s speed=0.295x    frame=  199 fps= 18 q=49.0 size=       1kB time=00:00:03.36 bitrate=   1.8kbits/s speed=0.301x    frame=  216 fps= 19 q=49.0 size=       1kB time=00:00:03.70 bitrate=   1.6kbits/s speed=0.317x    frame=  234 fps= 19 q=49.0 size=       1kB time=00:00:04.06 bitrate=   1.5kbits/s speed=0.333x    frame=  252 fps= 20 q=49.0 size=       1kB time=00:00:04.42 bitrate=   1.4kbits/s speed=0.347x    frame=  270 fps= 20 q=49.0 size=       1kB time=00:00:04.78 bitrate=   1.2kbits/s speed=0.361x    frame=  287 fps= 21 q=49.0 size=    3168kB time=00:00:05.12 bitrate=5067.5kbits/s speed=0.372x    frame=  295 fps= 21 q=49.0 size=    3168kB time=00:00:05.28 bitrate=4914.0kbits/s speed=0.37x    frame=  313 fps= 21 q=49.0 size=    3168kB time=00:00:05.64 bitrate=4600.4kbits/s speed=0.381x    frame=  331 fps= 22 q=49.0 size=    3168kB time=00:00:06.00 bitrate=4324.4kbits/s speed=0.392x    frame=  349 fps= 22 q=49.0 size=    3168kB time=00:00:06.36 bitrate=4079.6kbits/s speed=0.402x    frame=  367 fps= 22 q=49.0 size=    3168kB time=00:00:06.72 bitrate=3861.1kbits/s speed=0.411x    frame=  385 fps= 23 q=49.0 size=    3168kB time=00:00:07.08 bitrate=3664.8kbits/s speed=0.419x    frame=  403 fps= 23 q=49.0 size=    3168kB time=00:00:07.44 bitrate=3487.5kbits/s speed=0.428x    frame=  421 fps= 24 q=49.0 size=    3168kB time=00:00:07.80 bitrate=3326.6kbits/s speed=0.436x    frame=  439 fps= 24 q=49.0 size=    3168kB time=00:00:08.16 bitrate=3179.8kbits/s speed=0.443x    frame=  457 fps= 24 q=49.0 size=    3168kB time=00:00:08.52 bitrate=3045.5kbits/s speed=0.45x    frame=  465 fps= 24 q=49.0 size=    3168kB time=00:00:08.68 bitrate=2989.4kbits/s speed=0.446x    frame=  483 fps= 24 q=49.0 size=    3168kB time=00:00:09.04 bitrate=2870.3kbits/s speed=0.453x    frame=  500 fps= 24 q=49.0 size=    3168kB time=00:00:09.38 bitrate=2766.3kbits/s speed=0.458x    frame=  500 fps= 24 q=49.0 Lsize=    6415kB time=00:00:09.98 bitrate=5264.8kbits/s speed=0.487x    
video:6410kB audio:0kB subtitle:0kB other streams:0kB global headers:0kB muxing overhead: 0.066269%
bench: utime=1.224s
bench: maxrss=1396716kB
